<svg xmlns="http://www.w3.org/2000/svg" xmlns:xlink="http://www.w3.org/1999/xlink" id="Layer_1" x="0px" y="0px" viewBox="0 0 66.4 32.6" style="enable-background:new 0 0 66.4 32.6;" xml:space="preserve"> <style type="text/css"> .st0{fill:#068591;} .st1{fill:#046EA0;} .st2{fill:#FFFFFF;} .st3{fill:#1A1A1A;} </style> <path class="st0" d="M33.3,16.4c-0.2,0.7-0.5,1.4-1,2c-0.5,0.6-1.2,1.1-2,1.4c-0.9,0.4-2,0.5-3.4,0.5c-1.4,0-2.5-0.2-3.4-0.5 c-0.9-0.4-1.5-0.8-2-1.4c-0.5-0.6-0.8-1.2-1-2c-0.2-0.7-0.3-1.4-0.3-2.2v-8c0-0.2,0-0.4,0.1-0.5c0.1-0.2,0.2-0.3,0.3-0.4 C20.9,5.2,21,5.1,21.2,5c0.2-0.1,0.3-0.1,0.5-0.1h0.2c0.2,0,0.3,0,0.5,0.1c0.2,0.1,0.3,0.2,0.4,0.3c0.1,0.1,0.2,0.3,0.3,0.4 c0.1,0.2,0.1,0.3,0.1,0.5v8c0,0.5,0.1,0.9,0.2,1.3c0.1,0.4,0.3,0.7,0.6,1c0.3,0.3,0.7,0.5,1.1,0.7c0.5,0.2,1.1,0.2,1.8,0.2 c0.7,0,1.3-0.1,1.8-0.2c0.5-0.2,0.8-0.4,1.1-0.7c0.3-0.3,0.5-0.6,0.6-1c0.1-0.4,0.2-0.8,0.2-1.3v-8c0-0.2,0-0.4,0.1-0.5 c0.1-0.2,0.2-0.3,0.3-0.4c0.1-0.1,0.3-0.2,0.4-0.3c0.2-0.1,0.3-0.1,0.5-0.1h0.2c0.2,0,0.3,0,0.5,0.1c0.2,0.1,0.3,0.2,0.4,0.3 c0.1,0.1,0.2,0.3,0.3,0.4c0.1,0.2,0.1,0.3,0.1,0.5v8C33.6,14.9,33.5,15.7,33.3,16.4"></path> <path class="st0" d="M47.4,6.3c0,0.4-0.1,0.7-0.4,1c-0.3,0.3-0.6,0.4-1,0.4h-3.5v10.9c0,0.4-0.1,0.7-0.4,1c-0.3,0.3-0.6,0.4-1,0.4 h-0.2c-0.3,0-0.7-0.1-0.9-0.4c-0.3-0.3-0.4-0.6-0.4-1V7.8h-3.4c-0.4,0-0.7-0.1-1-0.4c-0.3-0.3-0.4-0.6-0.4-1c0-0.2,0-0.4,0.1-0.6 c0.1-0.2,0.2-0.3,0.3-0.5c0.1-0.1,0.3-0.2,0.5-0.3c0.2-0.1,0.4-0.1,0.6-0.1h9.8c0.2,0,0.4,0,0.6,0.1c0.2,0.1,0.3,0.2,0.5,0.3 c0.1,0.1,0.2,0.3,0.3,0.5C47.4,6,47.4,6.2,47.4,6.3"></path> <path class="st0" d="M61.4,19.7c-0.3,0.3-0.6,0.4-1,0.4H60c-0.5,0-0.9-0.2-1.2-0.6c-0.7-0.8-1.3-1.6-1.9-2.4 c-0.6-0.8-1.2-1.5-1.8-2.3c-0.6-0.8-1.2-1.5-1.8-2.3c-0.6-0.8-1.3-1.6-1.9-2.4v8.6c0,0.4-0.1,0.7-0.4,1c-0.3,0.3-0.6,0.4-1,0.4h-0.2 c-0.4,0-0.7-0.1-1-0.4c-0.3-0.3-0.4-0.6-0.4-1V6.4c0-0.4,0.1-0.8,0.4-1.1c0.3-0.3,0.6-0.4,1-0.4h0.5c0.2,0,0.4,0.1,0.6,0.2 c0.2,0.1,0.4,0.2,0.5,0.4c0.6,0.8,1.2,1.6,1.8,2.3c0.6,0.8,1.2,1.5,1.8,2.3c0.6,0.8,1.2,1.5,1.8,2.3c0.6,0.8,1.2,1.6,1.9,2.4V6.2 c0-0.2,0-0.4,0.1-0.5c0.1-0.2,0.2-0.3,0.3-0.4C59.4,5.1,59.6,5,59.8,5c0.2-0.1,0.3-0.1,0.5-0.1h0.2c0.4,0,0.7,0.1,1,0.4 c0.3,0.3,0.4,0.6,0.4,1v12.4C61.8,19,61.7,19.4,61.4,19.7"></path> <polygon class="st1" points="4.4,21.6 4.4,23.7 4.4,26.8 4.4,28.9 61.8,28.9 61.8,26.8 61.8,23.7 61.8,21.6 "></polygon> <path class="st2" d="M11.2,26.1H9.7l-0.3,0.7H8.7l1.4-3.2h0.6l1.4,3.2h-0.6L11.2,26.1z M11.1,25.6l-0.6-1.4l-0.6,1.4H11.1z"></path> <polygon class="st2" points="17.3,23.6 15.9,26.8 15.3,26.8 13.9,23.6 14.6,23.6 15.6,26.1 16.7,23.6 "></polygon> <polygon class="st2" points="21.9,26.3 21.9,26.8 19.5,26.8 19.5,23.6 21.8,23.6 21.8,24.1 20.1,24.1 20.1,25 21.6,25 21.6,25.4 20.1,25.4 20.1,26.3 "></polygon> <polygon class="st2" points="24.4,23.6 24.9,23.6 24.9,26.3 26.6,26.3 26.6,26.8 24.4,26.8 "></polygon> <polygon class="st2" points="28.9,23.6 29.5,23.6 29.5,26.3 31.1,26.3 31.1,26.8 28.9,26.8 "></polygon> <path class="st2" d="M35.5,26.1h-1.6l-0.3,0.7H33l1.4-3.2H35l1.4,3.2h-0.6L35.5,26.1z M35.3,25.6l-0.6-1.4l-0.6,1.4H35.3z"></path> <polygon class="st2" points="41.4,23.6 41.4,26.8 41,26.8 39.2,24.7 39.2,26.8 38.6,26.8 38.6,23.6 39.1,23.6 40.9,25.8 40.9,23.6 "></polygon> <polygon class="st2" points="46.5,26.3 46.5,26.8 44.1,26.8 44.1,23.6 46.4,23.6 46.4,24.1 44.7,24.1 44.7,25 46.2,25 46.2,25.4 44.7,25.4 44.7,26.3 "></polygon> <path class="st2" d="M49,23.6h1.4c0.3,0,0.6,0.1,0.9,0.2c0.3,0.1,0.5,0.3,0.6,0.6c0.1,0.2,0.2,0.5,0.2,0.8c0,0.3-0.1,0.6-0.2,0.8 c-0.1,0.2-0.3,0.4-0.6,0.6c-0.3,0.1-0.6,0.2-0.9,0.2H49V23.6z M50.3,26.3c0.2,0,0.4,0,0.6-0.1c0.2-0.1,0.3-0.2,0.4-0.4 c0.1-0.2,0.1-0.4,0.1-0.6c0-0.2,0-0.4-0.1-0.6c-0.1-0.2-0.2-0.3-0.4-0.4c-0.2-0.1-0.4-0.1-0.6-0.1h-0.8v2.2H50.3z"></path> <path class="st2" d="M56.6,26.1H55l-0.3,0.7h-0.6l1.4-3.2h0.6l1.4,3.2h-0.6L56.6,26.1z M56.4,25.6l-0.6-1.4l-0.6,1.4H56.4z"></path> <path class="st3" d="M12.2,11.2c2.9-0.6,5.1-3.2,5.1-6.3h-2.6c0,1.7-1.1,3.1-2.5,3.6V4.8H9.7v3.7C8.1,8,7,6.5,7,4.8H4.4 c0,3.1,2.2,5.7,5.1,6.3H4.4v2.6h5.2c-3,0.6-5.2,3.2-5.2,6.4H7c0-1.7,1.1-3.2,2.7-3.7v3.7h2.6v-3.6c1.5,0.5,2.5,2,2.5,3.6h2.6 c0-3.1-2.2-5.7-5.1-6.3v0h5.1v-2.6L12.2,11.2L12.2,11.2z"></path> </svg>